<svg
	width="351"
	height="268"
	viewBox="0 0 351 268"
	fill="white"
	xmlns="http://www.w3.org/2000/svg"
>
	<path d="M75.25 167V215" stroke="white" stroke-width="4" stroke-linecap="round" />
	<path d="M75.5 215L89.2949 225.085" stroke="white" stroke-width="4" stroke-linecap="round" />
	<path d="M274.295 215L260.5 225.085" stroke="white" stroke-width="4" stroke-linecap="round" />
	<path d="M275 167V215" stroke="white" stroke-width="4" stroke-linecap="round" />
	<path d="M89.5 225.037H260.5" stroke="white" stroke-width="4" stroke-linecap="round" />
	<path d="M52.5 158L5 214" stroke="white" stroke-width="10" stroke-linecap="round" />
	<path d="M298 158L345.5 214" stroke="white" stroke-width="10" stroke-linecap="round" />
	<path d="M136.5 227V265" stroke="white" stroke-width="6" stroke-linecap="round" />
	<path d="M214.5 227V265" stroke="white" stroke-width="6" stroke-linecap="round" />
	<path
		d="M105.009 157.428L151.239 131.107C155.007 128.952 154.978 123.5 151.165 121.419L104.247 95.6689C101.139 93.9686 97.3412 96.2105 97.3412 99.7577V152.987C97.3412 156.93 101.593 159.392 105.009 157.443V157.428Z"
		fill="#bef73f"

	/>
	<path
		d="M245.549 157.428L199.32 131.107C195.552 128.952 195.581 123.5 199.393 121.419L246.311 95.6689C249.42 93.9686 253.218 96.2105 253.218 99.7577V152.987C253.218 156.93 248.965 159.392 245.549 157.443V157.428Z"
		fill="#bef73f"
	/>
	<path
		d="M317.268 24.6712L278.368 1.29405C275.552 -0.391457 272.033 -0.435422 269.188 1.19145L179.746 52.3721C176.902 53.9989 173.411 53.9989 170.567 52.3721L81.1099 1.2061C78.2653 -0.420767 74.7462 -0.391457 71.931 1.30871L33.0161 24.6712C30.2155 26.3567 28.5 29.3759 28.5 32.6443V140.648C28.5 143.755 30.0982 146.657 32.7229 148.328L66.0512 169.434C66.7404 169.873 68.1187 170.723 69.6876 171.706C73.0161 173.772 77.3122 171.368 77.2829 167.455C77.2829 165.784 77.2829 164.26 77.2829 163.322L77.4588 67.1751C77.4588 62.0746 82.9867 58.8942 87.4149 61.4298L170.318 109.063C173.309 110.778 176.974 110.778 179.952 109.063L262.854 61.4298C267.282 58.8942 272.796 62.0746 272.81 67.1751L272.986 163.322C272.986 164.172 273.001 165.726 273.016 167.485C273.045 171.368 277.326 173.742 280.626 171.676C282.107 170.753 283.455 169.917 284.218 169.434L317.546 148.328C320.171 146.657 321.769 143.771 321.769 140.648V32.6443C321.769 29.3759 320.054 26.342 317.253 24.6712H317.268Z"
		fill="white"
	/>
	<path
		d="M159.5 170L163.5 178H169.5L165.5 170H169.5L173.5 178H179.5L175.5 170H179.5L183.5 178H189.5L185.5 170H191.5C192.6 170 193.542 170.392 194.325 171.175C195.108 171.958 195.5 172.9 195.5 174V198C195.5 199.1 195.108 200.042 194.325 200.825C193.542 201.608 192.6 202 191.5 202H159.5C158.4 202 157.458 201.608 156.675 200.825C155.892 200.042 155.5 199.1 155.5 198V174C155.5 172.9 155.892 171.958 156.675 171.175C157.458 170.392 158.4 170 159.5 170ZM159.5 182V198H191.5V182H159.5Z"
		fill="white"
	/>
</svg>
